<svg width="100%" height="100%" id="svg" viewBox="0 0 1440 490" xmlns="http://www.w3.org/2000/svg" class="transition duration-300 ease-in-out delay-150"><path d="M 0,500 L 0,0 C 74.68717948717949,40.37179487179487 149.37435897435898,80.74358974358974 239,95 C 328.625641025641,109.25641025641026 433.18974358974356,97.39743589743588 500,101 C 566.8102564102564,104.60256410256412 595.8666666666667,123.66666666666667 678,110 C 760.1333333333333,96.33333333333333 895.3435897435897,49.93589743589743 996,42 C 1096.6564102564103,34.06410256410257 1162.7589743589745,64.58974358974359 1231,64 C 1299.2410256410255,63.41025641025641 1369.6205128205129,31.705128205128204 1440,0 L 1440,500 L 0,500 Z" stroke="none" stroke-width="0" fill="#00a8e8" fill-opacity="0.265" class="transition-all duration-300 ease-in-out delay-150 path-0"></path><path d="M 0,500 L 0,0 C 71.84102564102562,85.7897435897436 143.68205128205125,171.5794871794872 229,198 C 314.31794871794875,224.4205128205128 413.1128205128206,191.47179487179488 506,181 C 598.8871794871794,170.52820512820512 685.8666666666666,182.53333333333336 758,191 C 830.1333333333334,199.46666666666664 887.4205128205128,204.3948717948718 965,210 C 1042.5794871794872,215.6051282051282 1140.451282051282,221.88717948717948 1223,187 C 1305.548717948718,152.11282051282052 1372.774358974359,76.05641025641026 1440,0 L 1440,500 L 0,500 Z" stroke="none" stroke-width="0" fill="#00a8e8" fill-opacity="0.4" class="transition-all duration-300 ease-in-out delay-150 path-1"></path><path d="M 0,500 L 0,0 C 58.11538461538461,107.75128205128203 116.23076923076923,215.50256410256407 207,268 C 297.7692307692308,320.49743589743593 421.1923076923076,317.74102564102566 499,310 C 576.8076923076924,302.25897435897434 609,289.53333333333336 685,271 C 761,252.46666666666664 880.8076923076924,228.12564102564102 980,245 C 1079.1923076923076,261.874358974359 1157.7692307692307,319.9641025641026 1231,286 C 1304.2307692307693,252.03589743589743 1372.1153846153848,126.01794871794871 1440,0 L 1440,500 L 0,500 Z" stroke="none" stroke-width="0" fill="#00a8e8" fill-opacity="0.53" class="transition-all duration-300 ease-in-out delay-150 path-2"></path><path d="M 0,500 L 0,0 C 104.64615384615385,142.65128205128207 209.2923076923077,285.30256410256413 274,351 C 338.7076923076923,416.69743589743587 363.47692307692296,405.44102564102565 438,404 C 512.523076923077,402.55897435897435 636.8000000000002,410.9333333333333 719,402 C 801.1999999999998,393.0666666666667 841.3230769230768,366.82564102564106 915,370 C 988.6769230769232,373.17435897435894 1095.9076923076925,405.7641025641026 1189,349 C 1282.0923076923075,292.2358974358974 1361.0461538461536,146.1179487179487 1440,0 L 1440,500 L 0,500 Z" stroke="none" stroke-width="0" fill="#00a8e8" fill-opacity="1" class="transition-all duration-300 ease-in-out delay-150 path-3"></path></svg>